<?xml version="1.0" standalone="no"?>
<!DOCTYPE svg PUBLIC "-//W3C//DTD SVG 20010904//EN"
 "http://www.w3.org/TR/2001/REC-SVG-20010904/DTD/svg10.dtd">
<svg version="1.0" xmlns="http://www.w3.org/2000/svg"
 width="700.000000pt" height="700.000000pt" viewBox="0 0 700.000000 700.000000"
 preserveAspectRatio="xMidYMid meet">
<metadata>
Created by potrace 1.14, written by Peter Selinger 2001-2017
</metadata>
<g transform="translate(0.000000,700.000000) scale(0.100000,-0.100000)"
fill="#000000" stroke="none">
<path d="M1932 6611 c-299 -74 -508 -340 -576 -734 -48 -274 -21 -630 78
-1042 20 -81 33 -151 30 -156 -3 -5 -12 -9 -20 -9 -21 0 -313 -105 -449 -162
-587 -245 -897 -513 -976 -846 -87 -361 150 -737 638 -1011 162 -91 444 -203
686 -272 107 -30 118 -35 112 -54 -30 -105 -80 -398 -100 -592 -19 -180 -19
-489 0 -613 72 -471 338 -730 748 -730 370 0 765 207 1248 653 l137 126 28
-31 c43 -46 271 -237 384 -323 319 -242 628 -398 860 -435 451 -71 793 216
884 742 48 274 21 630 -79 1044 -19 82 -38 157 -41 167 -4 12 0 17 14 17 60 0
478 162 697 270 417 205 653 429 737 700 29 95 32 261 5 359 -74 272 -327 536
-692 723 -188 96 -453 196 -683 258 -68 18 -82 25 -77 39 13 30 66 326 88 486
18 131 21 208 21 425 0 234 -2 276 -21 360 -49 217 -123 360 -247 478 -123
117 -256 169 -451 179 -380 18 -784 -186 -1286 -650 -137 -126 -137 -126 -155
-105 -30 34 -266 231 -372 311 -322 245 -628 399 -862 437 -96 15 -225 11
-308 -9z m2184 -1990 c23 -10 52 -34 66 -52 14 -19 148 -249 298 -511 298
-522 300 -526 263 -609 -33 -75 -544 -962 -572 -993 -52 -57 -40 -56 -671 -56
-631 0 -619 -1 -671 56 -27 31 -539 918 -572 993 -37 83 -35 87 263 609 150
262 284 492 298 511 14 18 43 42 66 52 39 17 76 19 616 19 540 0 577 -2 616
-19z"/>
<path d="M3014 4391 c-23 -10 -50 -32 -61 -47 -57 -81 -441 -766 -445 -795 -3
-18 -1 -49 3 -69 13 -58 423 -769 465 -807 23 -20 54 -36 85 -42 67 -15 811
-15 878 0 30 6 63 22 85 42 39 35 448 741 465 803 5 19 7 51 4 71 -5 31 -388
715 -446 797 -11 15 -38 37 -61 47 -38 17 -73 19 -486 19 -413 0 -448 -2 -486
-19z m847 -266 c35 -25 65 -71 189 -287 81 -141 150 -272 152 -289 3 -18 1
-49 -3 -70 -9 -38 -267 -496 -303 -538 -12 -13 -39 -32 -61 -42 -36 -17 -69
-19 -335 -19 -266 0 -299 2 -335 19 -22 10 -49 29 -61 42 -19 23 -238 398
-282 484 -20 41 -25 66 -23 120 1 40 280 530 322 566 51 45 76 48 396 46 l301
-2 43 -30z"/>
<path d="M3317 3905 c-58 -20 -82 -48 -165 -195 -70 -123 -77 -140 -77 -190 0
-49 7 -68 65 -173 121 -219 133 -227 360 -227 227 0 239 8 360 227 58 105 65
124 65 173 0 51 -7 67 -78 192 -82 144 -114 181 -175 198 -55 15 -309 12 -355
-5z m272 -257 c35 -22 71 -86 71 -128 0 -67 -63 -143 -129 -156 -111 -22 -214
89 -182 195 31 105 145 147 240 89z"/>
</g>
</svg>
